<svg xmlns="http://www.w3.org/2000/svg" width="395.558" height="119.983" viewBox="0 0 395.558 119.983"><defs><style>.a,.c,.e,.f{fill:#fff;}.b,.d{fill:none;}.c{stroke:rgba(0,0,0,0);stroke-miterlimit:10;}.d{stroke:#fff;stroke-width:4px;}.e{font-size:30px;font-family:Verdana;}.f{font-size:15px;font-family:ArialUnicodeMS, Arial Unicode MS;}.g,.h{stroke:none;}.h{fill:#fff;}</style></defs><g transform="translate(-10.442 -5.017)"><g transform="translate(12.173 47.686)"><g transform="translate(14.035 -22.704)"><rect class="a" width="35.349" height="7.032" rx="3.516" transform="translate(0 10.431)"/><rect class="a" width="28.363" height="8.253" rx="4.126" transform="translate(21.869) rotate(90)"/></g><g transform="translate(-0.892 -43.779)"><g class="b" transform="translate(0.727 22.15) rotate(-19)"><path class="g" d="M25.093-.425c14.529.485,26.69,11.319,27.163,24.2S41.333,46.7,26.8,46.218.113,34.9-.359,22.019,10.564-.91,25.093-.425Z"/><path class="h" d="M 24.08675193786621 1.557895660400391 C 20.64344215393066 1.557895660400391 17.36641311645508 2.184165954589844 14.3466911315918 3.419303894042969 C 11.44512176513672 4.606113433837891 8.930233001708984 6.290523529052734 6.871902465820312 8.425735473632812 C 5.122821807861328 10.24013519287109 3.782741546630859 12.30680465698242 2.888881683349609 14.56832504272461 C 1.965930938720703 16.90343475341797 1.545570373535156 19.38557624816895 1.639472961425781 21.9457950592041 C 2.073432922363281 33.7779655456543 13.39183044433594 43.76984405517578 26.87009239196777 44.21935653686523 C 27.18678283691406 44.22992706298828 27.4940128326416 44.23505401611328 27.80934143066406 44.23505401611328 C 31.25266265869141 44.23505401611328 34.52970123291016 43.60878372192383 37.54943084716797 42.37363433837891 C 40.45102310180664 41.18681335449219 42.96591186523438 39.50240325927734 45.02426147460938 37.3671760559082 C 46.77333068847656 35.55277633666992 48.11341094970703 33.48610687255859 49.00727081298828 31.22458648681641 C 49.93022155761719 28.88948440551758 50.35058212280273 26.4073543548584 50.25667190551758 23.84713554382324 C 49.82275390625 12.01497650146484 38.50434112548828 2.023105621337891 25.02604103088379 1.573596954345703 C 24.70935249328613 1.563026428222656 24.4021110534668 1.557895660400391 24.08675193786621 1.557895660400391 M 24.08675575256348 -0.442108154296875 C 24.42112159729004 -0.442108154296875 24.75484657287598 -0.4365615844726562 25.09271240234375 -0.42529296875 C 39.62180328369141 0.05926513671875 51.7829704284668 10.89357376098633 52.25533294677734 23.77383613586426 C 52.71676635742188 36.35454559326172 41.85360717773438 46.23505783081055 27.80933952331543 46.23505783081055 C 27.47497367858887 46.23505783081055 27.14128684997559 46.22951126098633 26.80342102050781 46.21824645996094 C 12.27434158325195 45.73368453979492 0.1132125854492188 34.89935302734375 -0.3591880798339844 22.01909446716309 C -0.8206024169921875 9.438377380371094 10.04250717163086 -0.442108154296875 24.08675575256348 -0.442108154296875 Z"/></g><g class="b" transform="matrix(0.799, 0.602, -0.602, 0.799, 32.104, 0)"><path class="g" d="M23.854.742C35.7.076,44.64,11.884,43.831,27.116S32.766,55.237,20.925,55.9.139,44.761.948,29.529,12.012,1.408,23.854.742Z"/><path class="h" d="M 24.80544281005859 2.714996337890625 C 24.52812385559082 2.714996337890625 24.24574279785156 2.722965240478516 23.96616363525391 2.738693237304688 C 21.39019393920898 2.883632659912109 18.84477424621582 3.680213928222656 16.4006233215332 5.106315612792969 C 13.98841285705566 6.513763427734375 11.77718353271484 8.469234466552734 9.828372955322266 10.91837310791016 C 7.855255126953125 13.39807510375977 6.256114959716797 16.25192260742188 5.075382232666016 19.40066528320312 C 3.848533630371094 22.67242431640625 3.1317138671875 26.1157341003418 2.944831848144531 29.63494491577148 C 2.734462738037109 33.59644317626953 3.205215454101562 37.35127258300781 4.344001770019531 40.79513549804688 C 5.412525177001953 44.02648544311523 7.071514129638672 46.88833618164062 9.141632080078125 49.07129287719727 C 12.15592193603516 52.24990463256836 15.90135383605957 53.93002319335938 19.97299385070801 53.93002319335938 C 20.25028419494629 53.93002319335938 20.53265380859375 53.92205429077148 20.81222343444824 53.90632629394531 C 23.38820266723633 53.76138305664062 25.93362426757812 52.96479415893555 28.37779426574707 51.5386962890625 C 30.79000473022461 50.13123321533203 33.00122451782227 48.17576599121094 34.95004272460938 45.72662353515625 C 36.92317199707031 43.24692535400391 38.52230453491211 40.39307403564453 39.70302200317383 37.24433517456055 C 40.92988204956055 33.97257232666016 41.64670181274414 30.52927398681641 41.83357238769531 27.01006507873535 C 42.04395294189453 23.04856491088867 41.57320404052734 19.29373550415039 40.43442535400391 15.84987640380859 C 39.36590194702148 12.61853408813477 37.70691299438477 9.756683349609375 35.63680267333984 7.573722839355469 C 32.62251281738281 4.395114898681641 28.87709426879883 2.714996337890625 24.80544281005859 2.714996337890625 M 24.80543899536133 0.7149925231933594 C 36.17191314697266 0.7149925231933594 44.61790084838867 12.29376602172852 43.83076477050781 27.11612510681152 C 43.02190399169922 42.34848403930664 32.76644134521484 55.23686599731445 20.92458343505859 55.90316390991211 C 9.08282470703125 56.56939315795898 0.1387557983398438 44.76125717163086 0.9476432800292969 29.52888488769531 C 1.756523132324219 14.29651260375977 12.0119743347168 1.408123016357422 23.85381317138672 0.7418556213378906 C 24.17255401611328 0.7239227294921875 24.49103164672852 0.7149925231933594 24.80543899536133 0.7149925231933594 Z"/></g></g></g><g transform="translate(85.79 17.291)"><path class="c" d="M216.5,22.847H18A19.372,19.372,0,0,1,4.212,17.136,19.373,19.373,0,0,1-1.5,3.347V.847h218v22ZM195.245,7.438A3.5,3.5,0,0,0,192.488,8.6a4.636,4.636,0,0,0-1.022,3.161,4.62,4.62,0,0,0,1.022,3.156,3.851,3.851,0,0,0,5.5,0,4.612,4.612,0,0,0,1.025-3.156A4.628,4.628,0,0,0,197.992,8.6,3.5,3.5,0,0,0,195.245,7.438Zm-18.662.228v5.31a3.333,3.333,0,0,0,.718,2.31,2.591,2.591,0,0,0,2.007.788,3.34,3.34,0,0,0,1.406-.293,6.754,6.754,0,0,0,1.333-.842v.908h1.377V7.666h-1.377v6.108a5.455,5.455,0,0,1-1.183.71,2.942,2.942,0,0,1-1.168.278,2.263,2.263,0,0,1-.915-.146,1.2,1.2,0,0,1-.513-.469,1.951,1.951,0,0,1-.248-.759,8.2,8.2,0,0,1-.059-1.066V7.666Zm-7.91,7.8h0a5.744,5.744,0,0,0,1.025.442,4.055,4.055,0,0,0,1.216.165,3.226,3.226,0,0,0,1.369-.289,3.568,3.568,0,0,0,1.143-.868,4.166,4.166,0,0,0,.78-1.377,5.553,5.553,0,0,0,.289-1.846,5.154,5.154,0,0,0-.839-3.142,2.723,2.723,0,0,0-2.289-1.113,3.436,3.436,0,0,0-1.464.3,5.792,5.792,0,0,0-1.231.78V4.45H167.3v11.4h1.29l.087-.379Zm-56.9-6.782a6.012,6.012,0,0,1,.857.059,1.954,1.954,0,0,1,.7.227,1.2,1.2,0,0,1,.472.483,1.632,1.632,0,0,1,.166.777v.212c-.793.038-1.549.1-2.249.175a6.163,6.163,0,0,0-1.795.447,2.677,2.677,0,0,0-1.139.9,2.6,2.6,0,0,0-.4,1.5,2.475,2.475,0,0,0,.77,1.867,2.628,2.628,0,0,0,1.875.733,4.311,4.311,0,0,0,1.048-.113,4.154,4.154,0,0,0,.791-.282,3.575,3.575,0,0,0,.6-.356c.185-.133.356-.253.5-.348v.872h1.369V10.3a3.233,3.233,0,0,0-.241-1.326,2.17,2.17,0,0,0-.7-.871,2.951,2.951,0,0,0-1.11-.488,7.074,7.074,0,0,0-1.506-.142,8.889,8.889,0,0,0-1.5.131c-.52.09-.9.17-1.165.242v1.4h.073a9.481,9.481,0,0,1,1.377-.414A5.9,5.9,0,0,1,111.771,8.684ZM81.588,7.666v5.31a3.333,3.333,0,0,0,.718,2.31,2.591,2.591,0,0,0,2.007.788,3.34,3.34,0,0,0,1.406-.293,6.751,6.751,0,0,0,1.333-.842v.908h1.377V7.666H87.052v6.108a5.482,5.482,0,0,1-1.183.71,2.942,2.942,0,0,1-1.168.278,2.263,2.263,0,0,1-.915-.146,1.194,1.194,0,0,1-.513-.469,1.967,1.967,0,0,1-.249-.759,8.377,8.377,0,0,1-.059-1.066V7.666H81.588ZM58.678,8.684a6.012,6.012,0,0,1,.857.059,1.951,1.951,0,0,1,.7.227,1.2,1.2,0,0,1,.472.483,1.642,1.642,0,0,1,.165.777v.212c-.793.038-1.549.1-2.248.175a6.152,6.152,0,0,0-1.795.447,2.678,2.678,0,0,0-1.139.9,2.6,2.6,0,0,0-.4,1.5,2.477,2.477,0,0,0,.769,1.867,2.629,2.629,0,0,0,1.876.733,4.307,4.307,0,0,0,1.047-.113,4.156,4.156,0,0,0,.791-.282,3.618,3.618,0,0,0,.6-.356c.182-.131.348-.248.494-.348v.872h1.37V10.3A3.23,3.23,0,0,0,62,8.969a2.164,2.164,0,0,0-.7-.871,2.938,2.938,0,0,0-1.11-.488,7.069,7.069,0,0,0-1.5-.142,8.91,8.91,0,0,0-1.5.131c-.518.09-.9.169-1.164.242v1.4h.073a9.415,9.415,0,0,1,1.377-.414A5.9,5.9,0,0,1,58.678,8.684Zm-30,0a5.994,5.994,0,0,1,.857.059,1.954,1.954,0,0,1,.7.227,1.2,1.2,0,0,1,.472.483,1.643,1.643,0,0,1,.165.777v.212c-.793.038-1.549.1-2.249.175a6.151,6.151,0,0,0-1.794.447,2.678,2.678,0,0,0-1.139.9,2.6,2.6,0,0,0-.4,1.5,2.475,2.475,0,0,0,.769,1.867,2.628,2.628,0,0,0,1.875.733,4.311,4.311,0,0,0,1.048-.113,4.156,4.156,0,0,0,.791-.282,3.572,3.572,0,0,0,.6-.356c.183-.132.355-.252.5-.348v.872h1.37V10.3A3.23,3.23,0,0,0,32,8.969a2.164,2.164,0,0,0-.7-.871,2.947,2.947,0,0,0-1.11-.488,7.074,7.074,0,0,0-1.506-.142,8.889,8.889,0,0,0-1.5.131c-.518.09-.9.169-1.165.242v1.4h.074a9.413,9.413,0,0,1,1.377-.414A5.878,5.878,0,0,1,28.678,8.684ZM207,13.81v1.545a7.415,7.415,0,0,0,1.271.472,6.088,6.088,0,0,0,1.666.216,4.053,4.053,0,0,0,2.531-.717,2.237,2.237,0,0,0,.926-1.839,1.994,1.994,0,0,0-.52-1.436,2.931,2.931,0,0,0-1.48-.754c-.216-.05-.481-.1-.787-.161s-.6-.117-.853-.175a2.482,2.482,0,0,1-1-.418,1.016,1.016,0,0,1,.205-1.623,2.6,2.6,0,0,1,1.274-.289,4.435,4.435,0,0,1,1.48.267A4.977,4.977,0,0,1,213,9.555h.073V8.083a5.666,5.666,0,0,0-1.248-.436,6.4,6.4,0,0,0-1.483-.179,4.664,4.664,0,0,0-1.418.2,3.049,3.049,0,0,0-1.044.545,2.317,2.317,0,0,0-.634.8,2.241,2.241,0,0,0-.209.952,2.086,2.086,0,0,0,.451,1.358,2.868,2.868,0,0,0,1.527.839c.26.069.55.133.86.191s.569.11.765.154a2.512,2.512,0,0,1,1.069.425.933.933,0,0,1,.279.733.99.99,0,0,1-.513.923,2.9,2.9,0,0,1-1.421.292,4.521,4.521,0,0,1-1.531-.289,5.535,5.535,0,0,1-1.45-.78Zm-64.5,0h0v1.545a7.474,7.474,0,0,0,1.271.472,6.1,6.1,0,0,0,1.667.216,4.048,4.048,0,0,0,2.53-.717,2.236,2.236,0,0,0,.927-1.839,2,2,0,0,0-.52-1.436,2.931,2.931,0,0,0-1.48-.754c-.214-.05-.479-.1-.787-.161s-.6-.117-.853-.175a2.482,2.482,0,0,1-1-.418,1.016,1.016,0,0,1,.205-1.623,2.6,2.6,0,0,1,1.274-.289,4.435,4.435,0,0,1,1.48.267,4.948,4.948,0,0,1,1.282.655h.074V8.083a5.672,5.672,0,0,0-1.249-.436,6.387,6.387,0,0,0-1.483-.179,4.673,4.673,0,0,0-1.418.2,3.045,3.045,0,0,0-1.043.545,2.308,2.308,0,0,0-.634.8,2.228,2.228,0,0,0-.209.952,2.09,2.09,0,0,0,.45,1.358,2.87,2.87,0,0,0,1.527.839c.261.069.551.133.86.191s.573.11.766.154a2.512,2.512,0,0,1,1.069.425.935.935,0,0,1,.278.733.991.991,0,0,1-.512.923,2.9,2.9,0,0,1-1.421.292,4.513,4.513,0,0,1-1.531-.289,5.518,5.518,0,0,1-1.45-.78H142.5ZM76.109,7.438a3.765,3.765,0,0,0-2.882,1.179,4.52,4.52,0,0,0-1.1,3.187,4.166,4.166,0,0,0,1.143,3.131,4.409,4.409,0,0,0,3.179,1.1,5.806,5.806,0,0,0,1.523-.2,11.473,11.473,0,0,0,1.421-.491v-1.5h-.073a4.135,4.135,0,0,1-1.205.655,4.583,4.583,0,0,1-1.681.334,3.6,3.6,0,0,1-1.153-.176,2.432,2.432,0,0,1-1.527-1.446,3.507,3.507,0,0,1-.227-1.315h6.027v-.747a3.908,3.908,0,0,0-.9-2.747A3.323,3.323,0,0,0,76.109,7.438Zm28.484.037a3.879,3.879,0,0,0-2.912,1.142,4.367,4.367,0,0,0-1.1,3.15,5.521,5.521,0,0,0,.293,1.882,3.545,3.545,0,0,0,.827,1.333,3.331,3.331,0,0,0,1.267.787,4.89,4.89,0,0,0,1.626.26,4.659,4.659,0,0,0,1.315-.183,8.991,8.991,0,0,0,1.307-.513V13.818h-.073a5.029,5.029,0,0,1-.418.3,6.058,6.058,0,0,1-.564.326,3.776,3.776,0,0,1-.776.286,3.47,3.47,0,0,1-.85.11,2.3,2.3,0,0,1-1.864-.795,3.477,3.477,0,0,1-.663-2.274,3.471,3.471,0,0,1,.678-2.311,2.323,2.323,0,0,1,1.85-.788,3.575,3.575,0,0,1,1.307.264,5.276,5.276,0,0,1,1.3.755h.073V8.157a7.16,7.16,0,0,0-1.241-.483A4.911,4.911,0,0,0,104.594,7.475Zm-36.27,0a3.875,3.875,0,0,0-2.911,1.142,4.367,4.367,0,0,0-1.1,3.15,5.522,5.522,0,0,0,.293,1.882,3.545,3.545,0,0,0,.828,1.333,3.331,3.331,0,0,0,1.267.787,4.887,4.887,0,0,0,1.625.26,4.65,4.65,0,0,0,1.315-.183,8.964,8.964,0,0,0,1.308-.513V13.818h-.074a4.978,4.978,0,0,1-.417.3,6.3,6.3,0,0,1-.564.326,3.782,3.782,0,0,1-.777.286,3.471,3.471,0,0,1-.85.11,2.3,2.3,0,0,1-1.864-.795,3.478,3.478,0,0,1-.662-2.274,3.476,3.476,0,0,1,.677-2.311,2.323,2.323,0,0,1,1.85-.788,3.577,3.577,0,0,1,1.308.264,5.265,5.265,0,0,1,1.3.755h.074V8.157A7.2,7.2,0,0,0,69.7,7.673,4.9,4.9,0,0,0,68.324,7.475Zm116.909.191V8.823h.931v4.351a3.039,3.039,0,0,0,.652,2.161,2.542,2.542,0,0,0,1.9.674,5.833,5.833,0,0,0,.817-.067,7.393,7.393,0,0,0,.846-.168V14.536h-.074a4.9,4.9,0,0,1-.527.165,2.714,2.714,0,0,1-.7.1,2.081,2.081,0,0,1-.86-.136.994.994,0,0,1-.444-.428,1.643,1.643,0,0,1-.2-.677c-.02-.241-.03-.58-.03-1.007V8.823h2.842V7.666H187.54V5.314h-1.377V7.666Zm-35.266,0V8.823h.93v4.351a3.038,3.038,0,0,0,.653,2.161,2.542,2.542,0,0,0,1.9.674,5.808,5.808,0,0,0,.816-.067,7.4,7.4,0,0,0,.846-.168V14.536h-.073a4.964,4.964,0,0,1-.527.165,2.728,2.728,0,0,1-.7.1,2.081,2.081,0,0,1-.86-.136.987.987,0,0,1-.443-.428,1.658,1.658,0,0,1-.205-.677c-.02-.241-.03-.58-.03-1.007V8.823h2.842V7.666h-2.842V5.314H150.9V7.666Zm-59.729,0V8.823h.931v4.351a3.039,3.039,0,0,0,.652,2.161,2.542,2.542,0,0,0,1.9.674,5.808,5.808,0,0,0,.816-.067,7.32,7.32,0,0,0,.846-.168V14.536h-.073a4.9,4.9,0,0,1-.527.165,2.714,2.714,0,0,1-.7.1,2.075,2.075,0,0,1-.86-.136.994.994,0,0,1-.444-.428,1.658,1.658,0,0,1-.205-.677c-.019-.245-.029-.584-.029-1.007V8.823h2.841V7.666H92.545V5.314H91.168V7.666Zm110.911,0v8.181h1.377V10.039a5.645,5.645,0,0,1,1.143-.728,2.843,2.843,0,0,1,1.23-.283,6.046,6.046,0,0,1,.685.033,5.057,5.057,0,0,1,.6.106h.074V7.753c-.219-.035-.378-.058-.484-.069a5.052,5.052,0,0,0-.519-.018,3.154,3.154,0,0,0-1.278.275,6.781,6.781,0,0,0-1.447.933V7.666h-1.377Zm-37.954,0h0v8.181h1.377V7.666h-1.377Zm-6.416,0v8.181h1.377V10.039A5.645,5.645,0,0,1,159.3,9.31a2.843,2.843,0,0,1,1.23-.283,6.046,6.046,0,0,1,.685.033,5.056,5.056,0,0,1,.6.106h.073V7.753c-.218-.035-.376-.058-.483-.069a5.052,5.052,0,0,0-.519-.018,3.163,3.163,0,0,0-1.279.275,6.8,6.8,0,0,0-1.446.933V7.666h-1.377Zm-17.827,0h0v8.181h1.377V7.666h-1.377ZM127.489,4.941V15.847h2.754a11.568,11.568,0,0,0,2.421-.205,5.386,5.386,0,0,0,1.666-.667,4.854,4.854,0,0,0,1.725-1.875,5.637,5.637,0,0,0,.648-2.7,5.75,5.75,0,0,0-.623-2.747A4.9,4.9,0,0,0,134.345,5.8a5.532,5.532,0,0,0-1.594-.633,11.128,11.128,0,0,0-2.537-.231ZM118,4.45v11.4h1.377V4.45ZM97.064,7.666v8.181h1.377V7.666ZM50.218,8.75a2.054,2.054,0,0,1,.908.161,1.107,1.107,0,0,1,.483.476,2.152,2.152,0,0,1,.2.784c.032.328.048.671.048,1.018v4.658h1.377v-5.31A3.628,3.628,0,0,0,52.6,8.256a2.382,2.382,0,0,0-1.988-.817,3.556,3.556,0,0,0-1.472.311,6.863,6.863,0,0,0-1.524,1.014,2.178,2.178,0,0,0-.868-.974,2.706,2.706,0,0,0-1.417-.352,3.189,3.189,0,0,0-1.366.3,6.066,6.066,0,0,0-1.285.835V7.666H41.3v8.181h1.377V9.739a6.761,6.761,0,0,1,1.131-.711,2.569,2.569,0,0,1,1.132-.278,2.088,2.088,0,0,1,.908.157,1.1,1.1,0,0,1,.483.473,2.166,2.166,0,0,1,.2.78c.032.326.048.672.048,1.029v4.658h1.377V10.61c0-.142-.005-.291-.015-.443s-.022-.283-.036-.392a7.155,7.155,0,0,1,1.156-.736A2.585,2.585,0,0,1,50.218,8.75ZM34.9,7.666v8.181h1.377V10.039a5.645,5.645,0,0,1,1.143-.728,2.843,2.843,0,0,1,1.23-.283,6.045,6.045,0,0,1,.685.033,5.053,5.053,0,0,1,.6.106H40V7.753c-.218-.035-.377-.058-.483-.069A5.088,5.088,0,0,0,39,7.666a3.16,3.16,0,0,0-1.278.275,6.782,6.782,0,0,0-1.447.933V7.666ZM20.13,8.75a2.27,2.27,0,0,1,.894.15,1.122,1.122,0,0,1,.527.457,1.956,1.956,0,0,1,.242.773,8.18,8.18,0,0,1,.066,1.058v4.658h1.377v-5.31a3.418,3.418,0,0,0-.7-2.3,2.55,2.55,0,0,0-2.021-.8,3.511,3.511,0,0,0-1.414.3,5.6,5.6,0,0,0-1.333.835V4.45H16.4v11.4h1.377V9.739a6,6,0,0,1,1.179-.711A2.875,2.875,0,0,1,20.13,8.75ZM7.459,4.941V15.847H8.91V11.782h1.45A5.732,5.732,0,0,0,12.3,11.5a3.647,3.647,0,0,0,1.333-.846,3.247,3.247,0,0,0,.707-1.073,3.546,3.546,0,0,0,.253-1.345,3.261,3.261,0,0,0-.341-1.574,2.949,2.949,0,0,0-.963-1.04,3.762,3.762,0,0,0-1.208-.517,7.227,7.227,0,0,0-1.663-.165Zm155.648-.073V6.3h1.553V4.868Zm-24.243,0V6.3h1.552V4.868h-1.552Zm-41.888,0V6.3h1.553V4.868Zm98.269,10.02a2.093,2.093,0,0,1-1.736-.795,3.747,3.747,0,0,1-.622-2.333,3.765,3.765,0,0,1,.618-2.363,2.334,2.334,0,0,1,3.469,0,3.747,3.747,0,0,1,.622,2.363,3.722,3.722,0,0,1-.626,2.34A2.093,2.093,0,0,1,195.245,14.888Zm-24.61-.051a4.069,4.069,0,0,1-.956-.1,6.049,6.049,0,0,1-1.007-.366V9.679a5.1,5.1,0,0,1,1.143-.67,3.116,3.116,0,0,1,1.216-.26,1.718,1.718,0,0,1,1.56.758,4.19,4.19,0,0,1,.483,2.223,3.572,3.572,0,0,1-.648,2.355A2.25,2.25,0,0,1,170.635,14.836Zm-59.106-.044a2,2,0,0,1-1.3-.356,1.306,1.306,0,0,1-.425-1.058,1.3,1.3,0,0,1,.366-.977,2.232,2.232,0,0,1,.959-.524,7.7,7.7,0,0,1,1.352-.212c.586-.05,1.071-.086,1.483-.11v2.278a6.029,6.029,0,0,1-1.113.678A3.106,3.106,0,0,1,111.53,14.792Zm-53.094,0a2,2,0,0,1-1.3-.356,1.306,1.306,0,0,1-.425-1.058,1.3,1.3,0,0,1,.366-.977,2.229,2.229,0,0,1,.959-.524,7.69,7.69,0,0,1,1.351-.212c.587-.05,1.072-.086,1.483-.11v2.278a6.006,6.006,0,0,1-1.113.678A3.106,3.106,0,0,1,58.436,14.792Zm-30,0a2,2,0,0,1-1.3-.356,1.308,1.308,0,0,1-.425-1.058,1.3,1.3,0,0,1,.366-.977,2.232,2.232,0,0,1,.959-.524,7.7,7.7,0,0,1,1.352-.212c.587-.05,1.072-.086,1.483-.11v2.278a6,6,0,0,1-1.113.678A3.106,3.106,0,0,1,28.436,14.792ZM130.3,14.6h-1.362V6.187H130.3a9.221,9.221,0,0,1,1.736.142,4.566,4.566,0,0,1,1.37.509,3.293,3.293,0,0,1,1.333,1.384,4.754,4.754,0,0,1,.446,2.161,4.94,4.94,0,0,1-.406,2.124,3.3,3.3,0,0,1-1.219,1.37,4.125,4.125,0,0,1-1.432.571A9.59,9.59,0,0,1,130.3,14.6ZM78.219,10.844H73.532a2.54,2.54,0,0,1,.743-1.618,2.4,2.4,0,0,1,1.761-.652,2.111,2.111,0,0,1,1.637.593,2.448,2.448,0,0,1,.545,1.676Zm-68.086-.3H8.91V6.187h1.435a5.42,5.42,0,0,1,1.139.1,2.407,2.407,0,0,1,.8.326,1.653,1.653,0,0,1,.6.68,2.294,2.294,0,0,1,.2.982,2.513,2.513,0,0,1-.142.871,2.107,2.107,0,0,1-.487.74,2.037,2.037,0,0,1-.894.5A5.367,5.367,0,0,1,10.133,10.544Z" transform="translate(102.5 41.208)"/><path class="d" d="M0,0,318.987-.112" transform="translate(0 43)"/><text class="e" transform="translate(0 30)"><tspan x="0" y="0">Pintu Medicos</tspan></text></g><text class="f" transform="translate(24 121)"><tspan x="0" y="0">Baldev Ganj Chaurah, Charot Dwar, Kosi Kalan(Mathura)</tspan></text></g></svg>